<svg width="96" height="96" viewBox="0 0 96 96" fill="none" xmlns="http://www.w3.org/2000/svg"><g clip-path="url(#a)"><rect width="96" height="96" rx="48" fill="#DA1E2A"/><circle cx="48" cy="48" r="48" fill="#fff"/><path fill-rule="evenodd" clip-rule="evenodd" d="M48.012 0C26.093 0 7.616 14.697 1.872 34.772l3.064-.99a12.705 12.705 0 0 0 6.92-5.767l4.336-7.682c1.115-1.978 2.938-3.442 5.073-4.227C27.202 13.91 44.198 9.72 44.198 9.72l1.643 4.76-22.087 7.634a1.832 1.832 0 0 0-1.133 2.327l.408 1.187a1.801 1.801 0 0 0 2.29 1.115l22.4-6.817 1.582 4.587-22.027 8.424a1.627 1.627 0 0 0-1.007 2.07l.522 1.51a1.662 1.662 0 0 0 2.11 1.025l17.92-6.194c3.046-7.375 10.518-11.968 18.278-11.968 3.383 0 6.567.911 8.99 2.314 12.366 6.464 6.83 23.752-3.688 20.112-3.023-1.895-3.91-3.472-3.91-6.962-.066-.39.563-2.308.677-2.518l-14.65 15.5c6.398 10.967 18.237 9.81 25.907.396l4.63.024c-3.113 7.13-9.992 12.1-17.956 12.1-4.845 0-9.295-1.847-12.731-4.893v9.738h8.432c2.146 0 3.988.402 5.54 1.206 1.548.803 2.747 1.93 3.593 3.381.846 1.451 1.271 3.136 1.271 5.055 0 1.919-.425 3.604-1.271 5.055-.846 1.451-2.045 2.578-3.592 3.382-1.547.803-3.395 1.205-5.541 1.205H46.29V52.887h-8.942v24.579H30.71v-24.58H18.963v-6.409h27.514a21.086 21.086 0 0 1-1.056-6.458 20.29 20.29 0 0 1 0-2.416c-4.983 2.356-11.292 5.204-14.608 6.158-2.19.63-4.498.671-6.603-.198l-8.156-3.37a12.707 12.707 0 0 0-9.008-.264L.378 42.082A48.266 48.266 0 0 0 0 48.006C0 74.509 21.487 96 48 96s48-21.485 48-47.994C96 21.496 74.525 0 48.012 0Z" fill="#DA1E2A"/><path fill-rule="evenodd" clip-rule="evenodd" d="M65.061 74.821c0-1.349-.407-2.416-1.229-3.208-.822-.791-1.937-1.187-3.34-1.187h-8.114v8.784h8.114c1.403 0 2.519-.395 3.34-1.187.822-.791 1.23-1.859 1.23-3.208v.006Z" fill="#DA1E2A"/></g><defs><clipPath id="a"><rect width="96" height="96" rx="48" fill="#fff"/></clipPath></defs></svg>