<svg width="96" height="96" viewBox="0 0 96 96" fill="none" xmlns="http://www.w3.org/2000/svg">
<g clip-path="url(#clip0_125_6168)">
<rect width="96" height="96" rx="48" fill="#DA1E2A"/>
<circle cx="48" cy="48" r="48" fill="white"/>
<path fill-rule="evenodd" clip-rule="evenodd" d="M48.012 0C26.093 0 7.61619 14.6968 1.87106 34.7723L4.93554 33.7829C7.86807 32.7695 10.3328 30.7188 11.8561 28.0145L16.1919 20.3333C17.3073 18.3545 19.1304 16.8914 21.2654 16.1059C27.2024 13.9113 44.1979 9.71992 44.1979 9.71992L45.8411 14.4809L23.7541 22.1142C22.8006 22.444 22.2909 23.4873 22.6207 24.4407L23.0285 25.628C23.3523 26.5694 24.3778 27.0671 25.3194 26.7433L47.7181 19.9255L49.3014 24.5127L27.2743 32.9374C26.4228 33.2312 25.973 34.1607 26.2669 35.0061L26.7886 36.5172C27.0884 37.3806 28.036 37.8424 28.8995 37.5425L46.8186 31.3484C49.8651 23.973 57.3373 19.3799 65.0974 19.3799C68.4797 19.3799 71.6641 20.2913 74.0869 21.6944C86.4528 28.1584 80.9175 45.4456 70.3988 41.8059C67.3763 39.9111 66.4887 38.334 66.4887 34.8442C66.4228 34.4545 67.0525 32.5357 67.1664 32.3258L52.5157 47.8261C58.9145 58.7933 70.7526 57.636 78.4228 48.2219L83.0525 48.2458C79.94 55.3754 73.0615 60.3463 65.0974 60.3463C60.2519 60.3463 55.8021 58.4994 52.3658 55.4533V65.1913H60.7976C62.9445 65.1913 64.7856 65.593 66.3388 66.3965C67.886 67.2 69.0854 68.3273 69.931 69.7784C70.7766 71.2295 71.2024 72.9144 71.2024 74.8332C71.2024 76.752 70.7766 78.437 69.931 79.8881C69.0854 81.3392 67.886 82.4665 66.3388 83.27C64.7916 84.0734 62.9445 84.4752 60.7976 84.4752H46.2909V52.8869H37.3493V77.4656H30.7107V52.8869H18.9625V46.477H46.4768C45.8111 44.4442 45.4333 42.2736 45.4213 40.019C45.3733 39.1915 45.3733 38.388 45.4213 37.6025C40.4378 39.959 34.1289 42.8072 30.8126 43.7607C28.6237 44.3903 26.3148 44.4322 24.2099 43.5628L16.054 40.1929C13.1874 39.0056 9.98501 38.9157 7.04648 39.929L0.377814 42.0817C0.137934 44.0245 0 45.9972 0 48.006C0 74.5094 21.4872 96 48 96C74.5127 96 96 74.5154 96 48.006C96 21.4966 74.5247 0 48.012 0Z" fill="#DA1E2A"/>
<path fill-rule="evenodd" clip-rule="evenodd" d="M65.0615 74.8212C65.0615 73.4721 64.6537 72.4047 63.8321 71.6132C63.0105 70.8217 61.895 70.426 60.4917 70.426H52.3778V79.2105H60.4917C61.895 79.2105 63.0105 78.8147 63.8321 78.0232C64.6537 77.2317 65.0615 76.1644 65.0615 74.8152V74.8212Z" fill="#DA1E2A"/>
</g>
<defs>
<clipPath id="clip0_125_6168">
<rect width="96" height="96" rx="48" fill="white"/>
</clipPath>
</defs>
</svg>
